<?xml version="1.0" encoding="UTF-8"?>
<svg width="20mm" height="20mm" version="1.1" viewBox="0 0 20 20" xml:space="preserve" xmlns="http://www.w3.org/2000/svg"><path d="m9.35e-5 9.35e-5v20h20v-20z" fill="#fff" stroke-width=".5" style="paint-order:fill markers stroke"/><g transform="matrix(.95001 0 0 .95001 .49991 .49991)"><path d="m9.35e-5 9.35e-5v20h20v-20z" fill="#001489" stroke-width=".5" style="paint-order:fill markers stroke"/><path d="m10.053 2.8662-0.26348 0.81129h-0.85298l0.69104 0.49811-0.26455 0.8145 0.68997-0.50773 0.68997 0.50773-0.26455-0.8145 0.69104-0.49811h-0.85298zm-3.1377 0.91391-0.26402 0.81129h-0.85245l0.69104 0.49811-0.26455 0.81397 0.68997-0.50773 0.68944 0.50773-0.26455-0.81397 0.69104-0.49811h-0.85245zm6.1483 0.098873-0.26348 0.81129h-0.85244l0.69104 0.49811-0.26455 0.81397 0.68944-0.50773 0.68997 0.50773-0.26455-0.81397 0.69104-0.49811h-0.85245zm2.1458 2.1234-0.26348 0.81129h-0.85245l0.69104 0.49811-0.26455 0.81397 0.68944-0.50773 0.68997 0.50773-0.26455-0.81397 0.69104-0.49811h-0.85244zm-10.44 0.098873-0.26402 0.81129h-0.85245l0.69104 0.49811-0.26455 0.8145 0.68997-0.50773 0.68944 0.50773-0.26455-0.8145 0.69104-0.49811h-0.85245zm-0.78831 2.8369-0.26348 0.81129h-0.85298l0.69104 0.49811-0.26455 0.8145 0.68997-0.50773 0.68997 0.50773-0.26455-0.8145 0.69104-0.49811h-0.85298zm12.037 5.345e-4 -0.26348 0.81076h-0.85298l0.69104 0.49811-0.26455 0.8145 0.68997-0.50773 0.68997 0.50773-0.26455-0.8145 0.69104-0.49811h-0.85298zm-11.326 3.1356-0.26348 0.81129h-0.85245l0.69104 0.49811-0.26455 0.81396 0.68944-0.50773 0.68997 0.50773-0.26455-0.81396 0.69104-0.49811h-0.85245zm10.502 0.04596-0.26402 0.81129h-0.85244l0.69104 0.49811-0.26455 0.8145 0.68997-0.50773 0.68944 0.50773-0.26455-0.8145 0.69104-0.49811h-0.85244zm-2.2607 2.0843-0.26348 0.8113h-0.85298l0.69104 0.4981-0.26455 0.81397 0.68998-0.50773 0.68997 0.50773-0.26455-0.81397 0.69104-0.4981h-0.85298zm-5.942 0.19134-0.26348 0.81129h-0.85245l0.69104 0.49811-0.26455 0.81396 0.68944-0.50772 0.68997 0.50772-0.26455-0.81396 0.69104-0.49811h-0.85245zm3.0613 0.61408-0.26348 0.81129h-0.85298l0.69104 0.49811-0.26455 0.8145 0.68997-0.50773 0.68997 0.50773-0.26455-0.8145 0.69104-0.49811h-0.85298z" fill="#fd0" stroke-width=".044027" style="paint-order:fill markers stroke"/></g></svg>
