<?xml version="1.0" encoding="UTF-8"?>
<svg width="20mm" height="20mm" version="1.1" viewBox="0 0 20 20" xml:space="preserve" xmlns="http://www.w3.org/2000/svg" xmlns:xlink="http://www.w3.org/1999/xlink"><rect y="1.7764e-15" width="20" height="20" fill="#fff" stroke-width=".5" style="paint-order:fill markers stroke"/><path d="m8.3377 0.5v7.8377h-7.8377v3.3251h7.8377v7.8372h3.3251v-7.8372h7.8372v-3.3251h-7.8372v-7.8377zm-4.491 2.2563 0.15072 1.2411-1.2411-0.15072v1.1444l1.2411-0.15072-0.15072 1.2411h1.1444l-0.15072-1.2411 1.2411 0.15072v-1.1444l-1.2411 0.15072 0.15072-1.2411zm11.163 0 0.15121 1.2411-1.2416-0.15072v1.1444l1.2416-0.15072-0.15121 1.2411h1.1444l-0.15072-1.2411 1.2411 0.15072v-1.1444l-1.2411 0.15072 0.15072-1.2411zm-11.163 11.163 0.15072 1.2416-1.2411-0.15121v1.1444l1.2411-0.15072-0.15072 1.2411h1.1444l-0.15072-1.2411 1.2411 0.15072v-1.1444l-1.2411 0.15121 0.15072-1.2416zm11.163 0 0.15121 1.2416-1.2416-0.15121v1.1444l1.2416-0.15072-0.15121 1.2411h1.1444l-0.15072-1.2411 1.2411 0.15072v-1.1444l-1.2411 0.15121 0.15072-1.2416z" fill="#da291c" stroke-width="3.642" style="paint-order:fill markers stroke"/></svg>
