<?xml version="1.0" encoding="UTF-8"?>
<svg width="20mm" height="20mm" version="1.1" viewBox="0 0 20 20" xml:space="preserve" xmlns="http://www.w3.org/2000/svg" xmlns:xlink="http://www.w3.org/1999/xlink"><g transform="matrix(.95 0 0 .95 -2.2241 .5)"><path d="m2.3411-0.52632v21.053h21.053v-21.053z" fill="#fff" stroke-width=".5" style="paint-order:fill markers stroke"/><path d="m2.8674 13.333v6.6668h20v-6.6668z" fill="#f00" stroke-width="1.619" style="paint-order:fill markers stroke"/><path d="m2.8674 6.6659v6.6673h20v-6.6673z" fill="#00f" stroke-width="1.619" style="paint-order:fill markers stroke"/><path d="m6.8135 4.3584v4.7355l2.2516 1.2575 2.2516-1.2575v-4.7355z" fill="#f00" stroke-width=".29023" style="paint-order:fill markers stroke"/><path d="m6.9566 4.3584v4.6152l2.1085 1.2255 2.1085-1.2255v-4.6152l-2.1085-0.15585z" fill="#00f" stroke-width=".30014" style="paint-order:fill markers stroke"/><path d="m9.0653 6.302-0.49832 1.1102-0.46928-0.65765-0.98446 1.8351 0.23195 0.15232 0.79337 0.14467 0.92853-0.16522 0.90666 0.16522 0.81094-0.14426 0.23231-0.15273-0.97585-1.8255-0.47932 0.67982zm0.0017935 2.525-0.92853 0.16522-0.5711-0.10397 0.2696 0.17731 0.3015 0.054804 0.92853-0.16522 0.90666 0.16522 0.32337-0.057627 0.26744-0.1757-0.59082 0.10518zm0 0.23372-0.92853 0.16522-0.07923-0.014504 1.006 0.66128 1.0117-0.66531-0.10325 0.018536z" fill="#fff" stroke-width="3.9398" style="paint-order:fill markers stroke"/><path transform="rotate(45)" d="m9.372-2.7311-3.654e-4 0.22107h0.22144v-0.22144zm0.71693-0.71693-3.66e-4 0.22107h0.22144v-0.22144zm0.17138 0.89708v0.22144h0.22144l-3.66e-4 -0.22107z" fill="#ff0" stroke-width="3" style="paint-order:fill markers stroke"/></g></svg>
