<?xml version="1.0" encoding="UTF-8"?>
<svg width="20mm" height="20mm" version="1.1" viewBox="0 0 20 20" xml:space="preserve" xmlns="http://www.w3.org/2000/svg" xmlns:xlink="http://www.w3.org/1999/xlink"><g transform="matrix(.95 0 0 .95 -1.5569 .5)"><path d="m1.6389-0.52632v21.053h21.053v-21.053z" fill="#fff" stroke-width=".5" style="paint-order:fill markers stroke"/><path d="m2.1652 13.333v6.6668h20v-6.6668z" fill="#ee1c25" stroke-width="1.619" style="paint-order:fill markers stroke"/><path d="m2.1652 6.6659v6.6673h20v-6.6673z" fill="#0b4ea2" stroke-width="1.619" style="paint-order:fill markers stroke"/><g transform="translate(-5.731)"><path d="m10.633 4.6189v8.504l4.3671 2.2582 4.3671-2.2582v-8.504z" fill="#fff" stroke-width=".54165" style="paint-order:fill markers stroke"/><g transform="translate(0 -.45029)"><path d="m10.969 5.483v7.235h8.0626v-7.235z" fill="#ee1c25" stroke-width=".54125" style="paint-order:fill markers stroke"/></g></g><path d="m8.8692 5.5175v1.3844h-1.3653v0.79943h1.3653v0.83147h-1.972v0.79943h1.972v2.9352h0.79943v-2.9352h1.9715v-0.79943h-1.9715v-0.83147h1.3653v-0.79943h-1.3653v-1.3844z" fill="#fff" stroke-width="3.8816" style="paint-order:fill markers stroke"/><path d="m5.2377 12.268v0.61509l4.0313 2.0846 4.0313-2.0846v-0.61509l-4.0313-1.4155z" fill="#0b4ea2" stroke-width="3" style="paint-order:fill markers stroke"/></g></svg>
