<?xml version="1.0" encoding="UTF-8"?>
<svg width="4.233mm" height="4.233mm" version="1.1" viewBox="0 0 4.233 4.233" xml:space="preserve" xmlns="http://www.w3.org/2000/svg"><rect width="4.233" height="4.233" stroke-linecap="square" stroke-width=".3" style="paint-order:fill markers stroke"/><path d="m1.0452 0.74615v0.8143h0.20604c0.053236-0.22119 0.17764-0.45635 0.29627-0.54753 0.035772-0.020818 0.15284-0.026647 0.34294-0.027365-1.253e-4 0.70663 6.808e-4 1.4133-0.00106 2.1199-0.00249 0.046913-0.025263 0.098438-0.071894 0.11477-0.041989 0.017795-0.077101 0.023045-0.30509 0.044954v0.23203h1.2082v-0.23409c-0.102-0.00118-0.20197-0.026029-0.29927-0.056464-0.039265-0.016082-0.067277-0.054815-0.071781-0.097374-0.014905-0.70684-0.00536-1.4162-0.00536-2.1237 0.10659 9.438e-4 0.213-5.621e-4 0.31823 0.017062 0.14092 0.052599 0.28964 0.41113 0.32008 0.55784h0.20529v-0.82465l-2.1425 2.5e-7z" fill="#fff" stroke-linecap="square" stroke-width=".038282" style="paint-order:fill markers stroke"/></svg>
