<?xml version="1.0" encoding="UTF-8" standalone="no"?>
<!-- Created with Inkscape (http://www.inkscape.org/) -->

<svg
   width="210mm"
   height="36mm"
   viewBox="0 0 210 36"
   version="1.1"
   id="svg5"
   xmlns="http://www.w3.org/2000/svg"
   xmlns:svg="http://www.w3.org/2000/svg">
  <defs
     id="defs2" />
  <g
     id="g362"
     transform="matrix(0.9976247,0,0,0.99829667,7.4341576e-7,-7.15698)">
    <path
       id="path304"
       style="font-style:italic;font-weight:300;font-size:36.7263px;line-height:1.1;font-family:'Source Sans Pro';-inkscape-font-specification:'Source Sans Pro Light Italic';text-align:center;text-anchor:middle;fill:#e6e6e6;stroke-width:2.22307;paint-order:fill markers stroke"
       d="m 78.037164,7.569 -4.945101,24.66301 c -0.125831,0.500516 -0.188561,0.88833 -0.188561,1.163614 0,0.525541 0.151083,0.925832 0.453078,1.201115 0.301996,0.275284 0.704535,0.413049 1.207859,0.413049 0.276829,0 0.50319,-0.02495 0.679353,-0.075 0.20133,-0.02502 0.402599,-0.08793 0.603929,-0.188037 l -0.113137,-1.238617 c -0.201329,0.07507 -0.339868,0.124978 -0.415366,0.150007 h -0.226275 c -0.352328,0 -0.528504,-0.18767 -0.528504,-0.563056 v -0.262514 c 0,-0.125129 0.02509,-0.287847 0.07542,-0.488052 L 79.584964,7.569 Z m 82.671356,0 -5.43589,26.990238 h 1.58551 l 2.68023,-13.28886 c 1.35898,-1.351391 2.56659,-2.31469 3.62358,-2.890283 1.05697,-0.600618 1.98805,-0.9011 2.79337,-0.9011 1.15765,0 1.98834,0.27553 2.49168,0.826096 0.50332,0.550568 0.75477,1.388578 0.75477,2.514737 0,0.350361 -0.0252,0.688272 -0.0754,1.013606 -0.0504,0.325335 -0.12561,0.763583 -0.22627,1.31415 l -2.3403,11.411654 h 1.54727 l 2.34082,-11.637194 c 0.12586,-0.52554 0.20113,-0.950784 0.22628,-1.276119 0.0504,-0.325335 0.0754,-0.713149 0.0754,-1.163614 0,-1.326365 -0.32673,-2.390001 -0.98105,-3.190825 -0.65432,-0.800825 -1.76209,-1.201116 -3.32241,-1.201116 -1.1073,0 -2.18946,0.31243 -3.24645,0.938074 -1.03181,0.625644 -2.13906,1.426754 -3.32187,2.402759 h -0.15085 l 0.49079,-1.877204 2.03859,-9.984999 z m 38.57975,0 -5.43589,26.990238 h 1.32152 l 0.71707,-2.477764 h 0.11315 c 0.50332,0.875902 1.13275,1.589152 1.88774,2.139719 0.78015,0.52554 1.71122,0.788595 2.79337,0.788595 1.23314,0 2.44076,-0.312959 3.62357,-0.938602 1.18281,-0.650671 2.22733,-1.539114 3.13332,-2.665273 0.93115,-1.126159 1.67349,-2.439846 2.22715,-3.941391 0.55365,-1.526572 0.83073,-3.153217 0.83073,-4.879994 0,-2.12719 -0.47834,-3.741359 -1.43466,-4.842492 -0.95631,-1.101134 -2.23973,-1.651666 -3.85038,-1.651666 -1.23315,0 -2.41567,0.299954 -3.54815,0.900573 -1.13248,0.600617 -2.17699,1.288915 -3.13331,2.064714 h -0.0755 l 0.79254,-3.641377 1.58551,-7.84528 z m -68.25089,1.7641715 -0.49079,2.7027735 -0.90563,5.105534 h 1.17015 l 1.24557,-5.105534 0.52851,-2.7027735 z M 4.9165965,11.397885 3.6710259,16.540392 0.72627422,16.690928 0.5,17.892043 H 3.3310835 L 0.87765493,29.641742 c -0.0503327,0.325334 -0.0879711,0.625289 -0.11313711,0.900572 -0.0251661,0.250258 -0.0382436,0.550741 -0.0382436,0.901101 0,0.47549 0.0632618,0.938689 0.18909301,1.389153 0.12583127,0.425438 0.33964647,0.800777 0.64164137,1.126112 0.3019949,0.325335 0.6919871,0.575385 1.1701458,0.750565 0.5033249,0.200206 1.1071323,0.300543 1.8117872,0.300543 0.5788238,0 1.1199005,-0.08786 1.6232254,-0.263041 0.5033249,-0.175181 0.9314866,-0.36285 1.2838141,-0.563057 L 7.0306139,33.020078 c -0.301995,0.150154 -0.6418027,0.300394 -1.0192964,0.45055 -0.3523274,0.125129 -0.7423196,0.187509 -1.1701458,0.187509 -0.9814834,0 -1.6610989,-0.212622 -2.0385925,-0.638059 C 2.4502517,32.59464 2.2740748,31.96925 2.2740748,31.1434 c 0,-0.275283 0.012546,-0.525862 0.037712,-0.751093 0.025166,-0.225233 0.063336,-0.45033 0.1136683,-0.675561 L 4.8788841,17.892043 H 9.7862728 L 10.088503,16.540392 H 5.1811142 L 6.2381229,11.397885 Z M 20.998001,16.09037 c -1.182813,0 -2.239874,0.375339 -3.171026,1.126112 -0.93115,0.750772 -1.774397,1.664168 -2.529385,2.740275 h -0.150849 l 0.566217,-3.416365 h -1.283283 l -3.661818,18.018846 h 1.585513 l 2.378004,-11.937209 c 0.80532,-1.626675 1.736389,-2.87798 2.793371,-3.753882 1.082149,-0.875901 2.101572,-1.314148 3.057889,-1.314148 0.352328,0 0.629404,0.03795 0.830735,0.113033 0.226495,0.05005 0.427764,0.112432 0.603929,0.187509 l 0.603929,-1.464156 c -0.301995,-0.125127 -0.591618,-0.199983 -0.868447,-0.225011 -0.251663,-0.05005 -0.503116,-0.075 -0.754779,-0.075 z m 41.713068,0 c -1.207979,0 -2.391033,0.324907 -3.548681,0.975576 -1.13248,0.625644 -2.151373,1.489135 -3.057358,2.590269 -0.905984,1.101133 -1.635783,2.389867 -2.189442,3.866387 -0.553657,1.451494 -0.830734,3.015759 -0.830734,4.692485 0,2.102163 0.478346,3.703857 1.434664,4.804991 0.981484,1.076107 2.25236,1.614163 3.812667,1.614163 1.258313,0 2.428289,-0.300482 3.510437,-0.9011 1.107315,-0.600619 2.176922,-1.401202 3.208739,-2.402232 l -0.905629,4.204433 c -0.40266,1.926984 -1.119913,3.465769 -2.151729,4.616953 -1.00665,1.151185 -2.403519,1.727198 -4.190323,1.727198 -1.13248,0 -2.139357,-0.225627 -3.020176,-0.67609 -0.880818,-0.425438 -1.660803,-0.951017 -2.340291,-1.576662 l -0.868447,1.126111 c 0.80532,0.650671 1.698751,1.226683 2.680234,1.727199 1.00665,0.500514 2.16461,0.750565 3.473256,0.750565 2.113964,0 3.825018,-0.638394 5.133663,-1.914708 1.33381,-1.251288 2.227241,-2.990217 2.680234,-5.21751 l 3.964048,-19.558006 h -1.283814 l -0.717066,2.477762 h -0.15085 C 66.876312,18.142253 66.246881,17.44148 65.466728,16.915939 64.686575,16.365372 63.768052,16.09037 62.711069,16.09037 Z m 28.34961,0 c -1.233146,0 -2.428215,0.299954 -3.585862,0.900573 -1.13248,0.600617 -2.151904,1.42668 -3.057889,2.477762 -0.880818,1.051082 -1.585526,2.302388 -2.114017,3.753882 -0.528492,1.426468 -0.792491,2.978258 -0.792491,4.654983 0,2.277345 0.553623,4.041227 1.660938,5.292515 1.107314,1.226261 2.592006,1.839703 4.454308,1.839703 1.233147,0 2.428747,-0.300483 3.586394,-0.901101 1.157647,-0.600618 2.17654,-1.426681 3.057357,-2.477762 0.88082,-1.051082 1.585527,-2.289385 2.114017,-3.715852 0.553658,-1.451495 0.830736,-3.01576 0.830736,-4.692486 0,-2.277344 -0.553624,-4.029278 -1.660938,-5.255541 -1.107315,-1.251287 -2.605085,-1.876676 -4.492553,-1.876676 z m 49.527491,0 c -0.75498,0 -1.48479,0.124761 -2.18944,0.375018 -0.67949,0.225232 -1.28382,0.563142 -1.81232,1.013607 -0.52848,0.450463 -0.94357,0.98852 -1.24557,1.614164 -0.30199,0.625644 -0.45308,1.313941 -0.45308,2.064714 0,0.950979 0.32726,1.789517 0.98159,2.515264 0.67948,0.700722 1.82437,1.488828 3.43501,2.36473 0.70465,0.375386 1.28389,0.725773 1.73689,1.051108 0.453,0.300309 0.80535,0.600792 1.05701,0.901101 0.25167,0.300309 0.42784,0.612739 0.52851,0.938074 0.10063,0.300309 0.15085,0.625743 0.15085,0.976105 0,0.52554 -0.12599,1.013693 -0.37766,1.464157 -0.25166,0.450463 -0.59147,0.850754 -1.01929,1.201115 -0.42783,0.35036 -0.9182,0.625891 -1.47185,0.826097 -0.55366,0.200206 -1.14545,0.300014 -1.77461,0.300014 -1.15764,0 -2.17654,-0.275001 -3.05735,-0.825568 -0.88082,-0.550567 -1.57299,-1.226388 -2.0763,-2.027213 l -1.09473,0.826098 c 0.25167,0.425437 0.59148,0.838204 1.01929,1.238617 0.42784,0.375386 0.90565,0.725773 1.43414,1.051108 0.52849,0.325335 1.09466,0.575385 1.69865,0.750565 0.60399,0.200206 1.23343,0.300543 1.88774,0.300543 0.90599,0 1.73616,-0.125289 2.49115,-0.375547 0.78014,-0.250257 1.44721,-0.600645 2.00088,-1.051108 0.57882,-0.475489 1.03207,-1.038498 1.35924,-1.689168 0.32715,-0.675696 0.49079,-1.426374 0.49079,-2.252223 0,-0.400413 -0.0507,-0.788228 -0.15139,-1.163614 -0.10062,-0.400413 -0.31448,-0.801232 -0.64164,-1.201644 -0.32715,-0.400412 -0.79242,-0.825655 -1.39642,-1.276119 -0.57882,-0.450463 -1.35933,-0.938615 -2.34082,-1.464157 -0.45299,-0.250258 -0.88062,-0.487831 -1.28329,-0.713063 -0.40265,-0.250257 -0.75501,-0.512783 -1.057,-0.788067 -0.302,-0.300309 -0.55345,-0.613268 -0.75478,-0.938602 -0.17616,-0.350361 -0.26452,-0.738176 -0.26452,-1.163614 0,-0.47549 0.10094,-0.926213 0.30223,-1.351651 0.2265,-0.425438 0.52814,-0.800777 0.90563,-1.126113 0.3775,-0.325334 0.8182,-0.575384 1.32152,-0.750565 0.50333,-0.200205 1.0444,-0.300542 1.62323,-0.300542 0.90598,0 1.67342,0.18767 2.30258,0.563055 0.65432,0.350362 1.23303,0.775604 1.73636,1.27612 l 1.0193,-0.975577 c -0.62916,-0.65067 -1.3715,-1.176248 -2.22715,-1.576661 -0.83049,-0.400412 -1.76155,-0.600558 -2.79338,-0.600558 z m -115.399846,0.450022 -0.30223,1.351651 h 9.248559 l -13.514306,15.728592 -0.15085,0.938603 h 12.608148 l 0.30223,-1.351652 H 22.734364 l 13.55202,-15.728591 0.150849,-0.938603 z m 12.64586,0 3.057889,18.31886 -0.793022,1.53916 c -0.754987,1.526572 -1.598233,2.740451 -2.529385,3.641378 -0.93115,0.925953 -1.937496,1.389153 -3.019645,1.389153 -0.452992,0 -0.880623,-0.112814 -1.283283,-0.338045 l -0.60446,1.238617 c 0.352328,0.175181 0.692136,0.287995 1.019296,0.338045 0.301996,0.07507 0.55398,0.112505 0.75531,0.112505 0.830486,0 1.585379,-0.175193 2.264866,-0.525554 0.679489,-0.325335 1.295843,-0.77553 1.849501,-1.351123 0.578823,-0.550566 1.094808,-1.188959 1.5478,-1.914706 0.478158,-0.725748 0.918867,-1.46395 1.321527,-2.214722 L 52.594062,16.540392 H 51.008549 L 44.893303,27.83954 c -0.503326,0.900928 -0.994218,1.801847 -1.472377,2.702774 -0.452993,0.900927 -0.905715,1.789371 -1.358707,2.665272 H 41.910838 C 41.810173,32.381736 41.684713,31.506298 41.533714,30.580344 41.407883,29.629366 41.28189,28.715442 41.15606,27.83954 L 39.381985,16.540392 Z m 63.645726,0 1.54727,18.018846 h 2.11403 l 5.1719,-11.224145 c 0.40266,-0.875902 0.79265,-1.776822 1.17014,-2.702774 0.40266,-0.925953 0.79265,-1.814396 1.17015,-2.665273 h 0.15085 c 0.0756,0.850877 0.12624,1.73932 0.15138,2.665273 0.0252,0.925952 0.0628,1.826872 0.11313,2.702774 l 0.75479,11.224145 h 2.11402 l 8.53149,-18.018846 h -1.51009 l -5.51132,11.7872 c -0.42782,0.82585 -0.81782,1.651913 -1.17014,2.477763 l -1.05701,2.402231 h -0.15085 c -0.0503,-0.800824 -0.10104,-1.601407 -0.15138,-2.402231 -0.0252,-0.82585 -0.0628,-1.651913 -0.11314,-2.477763 l -0.83021,-11.7872 h -1.88774 l -5.43589,11.7872 c -0.3775,0.82585 -0.7424,1.651913 -1.09472,2.477763 -0.35233,0.800824 -0.71723,1.601407 -1.09473,2.402231 h -0.15085 c -0.0504,-0.800824 -0.11358,-1.601407 -0.18908,-2.402231 -0.0504,-0.82585 -0.11307,-1.651913 -0.18857,-2.477763 l -0.90616,-11.7872 z m 76.44244,0 -2.34082,11.637193 c -0.12586,0.500515 -0.21368,0.925759 -0.26398,1.276119 -0.0252,0.325335 -0.0377,0.713679 -0.0377,1.164143 0,1.301339 0.32726,2.364975 0.98159,3.190826 0.67949,0.800823 1.79928,1.201115 3.35959,1.201115 1.10731,0 2.17692,-0.325436 3.20874,-0.976105 1.03181,-0.650669 2.10142,-1.451779 3.20873,-2.402758 h 0.15085 l -0.37766,2.928313 h 1.28382 l 3.62358,-18.018846 h -1.5478 l -2.68023,13.288859 c -1.35899,1.326366 -2.56661,2.290193 -3.62358,2.890812 -1.05698,0.600618 -1.98804,0.900572 -2.79337,0.900572 -1.13248,0 -1.95064,-0.275002 -2.45396,-0.825569 -0.50332,-0.550567 -0.75478,-1.389106 -0.75478,-2.515265 0,-0.350361 0.0125,-0.688272 0.0377,-1.013606 0.0504,-0.325335 0.13816,-0.763054 0.26399,-1.313621 l 2.30257,-11.412182 z M 62.673357,17.441493 c 0.855651,0 1.648182,0.250578 2.378004,0.751093 0.72982,0.500515 1.434528,1.338525 2.114018,2.514737 l -1.887213,8.896917 c -1.031817,1.126159 -2.152139,2.014603 -3.360119,2.665272 -1.182813,0.65067 -2.277513,0.975576 -3.284163,0.975576 -1.233146,0 -2.201854,-0.43772 -2.906508,-1.313621 -0.704656,-0.875902 -1.057009,-2.202064 -1.057009,-3.978893 0,-1.30134 0.226361,-2.577599 0.679354,-3.828886 0.452992,-1.251288 1.044784,-2.365357 1.774606,-3.341362 0.754987,-1.00103 1.610249,-1.801613 2.566566,-2.402231 0.956317,-0.625644 1.950648,-0.938602 2.982464,-0.938602 z m 28.274185,0 c 1.509975,0 2.667937,0.513103 3.473256,1.53916 0.80532,1.001029 1.207858,2.477434 1.207858,4.429444 0,1.401443 -0.226361,2.728133 -0.679353,3.979421 -0.452993,1.226262 -1.057332,2.302375 -1.812319,3.228329 -0.729821,0.925952 -1.55999,1.664154 -2.491141,2.214721 -0.931151,0.550566 -1.887844,0.825569 -2.869327,0.825569 -1.509975,0 -2.679951,-0.513104 -3.510437,-1.53916 -0.805321,-1.026056 -1.207858,-2.514937 -1.207858,-4.466946 0,-1.376417 0.226361,-2.677628 0.679353,-3.903889 0.452992,-1.251289 1.044254,-2.339877 1.774075,-3.265831 0.754988,-0.925952 1.598234,-1.664155 2.529385,-2.214722 0.956316,-0.550566 1.925024,-0.826096 2.906508,-0.826096 z m 113.927478,0 c 1.2583,0 2.25264,0.450723 2.98246,1.351651 0.72982,0.900927 1.09472,2.252043 1.09472,4.053897 0,1.351391 -0.22635,2.678082 -0.67935,3.979421 -0.453,1.30134 -1.06988,2.464786 -1.85003,3.490842 -0.75499,1.00103 -1.63588,1.814617 -2.64252,2.44026 -0.98148,0.60062 -2.01293,0.900573 -3.09507,0.900573 -0.85566,0 -1.64872,-0.250051 -2.37854,-0.750565 -0.72982,-0.500516 -1.42198,-1.339055 -2.0763,-2.515265 l 1.96317,-9.609981 c 1.03181,-0.976005 2.1516,-1.776587 3.35958,-2.402231 1.20798,-0.625644 2.31522,-0.938602 3.32188,-0.938602 z" />
    <path
       id="path493"
       style="font-style:italic;font-weight:300;font-size:36.7263px;line-height:1.1;font-family:'Source Sans Pro';-inkscape-font-specification:'Source Sans Pro Light Italic';text-align:center;text-anchor:middle;fill:#000000;stroke-width:2.22307;paint-order:fill markers stroke"
       d="M 77.537163,7.1691916 72.592062,31.832202 c -0.125831,0.500516 -0.188561,0.88833 -0.188561,1.163614 0,0.525541 0.151083,0.925832 0.453078,1.201115 0.301996,0.275284 0.704535,0.413049 1.207859,0.413049 0.276829,0 0.50319,-0.02495 0.679353,-0.075 0.20133,-0.02502 0.402599,-0.08793 0.603929,-0.188037 l -0.113137,-1.238617 c -0.201329,0.07507 -0.339868,0.124978 -0.415366,0.150007 h -0.226275 c -0.352328,0 -0.528504,-0.18767 -0.528504,-0.563056 v -0.262514 c 0,-0.125129 0.02509,-0.287847 0.07542,-0.488052 L 79.084963,7.1691916 Z m 82.671357,0 -5.43589,26.9902384 h 1.58551 l 2.68023,-13.28886 c 1.35898,-1.351391 2.56659,-2.31469 3.62358,-2.890283 1.05697,-0.600618 1.98805,-0.9011 2.79337,-0.9011 1.15765,0 1.98834,0.27553 2.49168,0.826096 0.50332,0.550568 0.75477,1.388578 0.75477,2.514737 0,0.350361 -0.0252,0.688272 -0.0754,1.013606 -0.0504,0.325335 -0.12561,0.763583 -0.22627,1.31415 l -2.3403,11.411654 h 1.54727 l 2.34082,-11.637194 c 0.12586,-0.52554 0.20113,-0.950784 0.22628,-1.276119 0.0504,-0.325335 0.0754,-0.713149 0.0754,-1.163614 0,-1.326365 -0.32673,-2.390001 -0.98105,-3.190825 -0.65432,-0.800825 -1.76209,-1.201116 -3.32241,-1.201116 -1.1073,0 -2.18946,0.31243 -3.24645,0.938074 -1.03181,0.625644 -2.13906,1.426754 -3.32187,2.402759 h -0.15085 l 0.49079,-1.877204 2.03859,-9.9849994 z m 38.57975,0 -5.43589,26.9902384 h 1.32152 l 0.71707,-2.477764 h 0.11315 c 0.50332,0.875902 1.13275,1.589152 1.88774,2.139719 0.78015,0.52554 1.71122,0.788595 2.79337,0.788595 1.23314,0 2.44076,-0.312959 3.62357,-0.938602 1.18281,-0.650671 2.22733,-1.539114 3.13332,-2.665273 0.93115,-1.126159 1.67349,-2.439846 2.22715,-3.941391 C 209.72292,25.538142 210,23.911497 210,22.18472 c 0,-2.12719 -0.47834,-3.741359 -1.43466,-4.842492 -0.95631,-1.101134 -2.23973,-1.651666 -3.85038,-1.651666 -1.23315,0 -2.41567,0.299954 -3.54815,0.900573 -1.13248,0.600617 -2.17699,1.288915 -3.13331,2.064714 h -0.0755 l 0.79254,-3.641377 1.58551,-7.8452804 z m -68.25089,1.7641715 -0.49079,2.7027739 -0.90563,5.105534 h 1.17015 l 1.24557,-5.105534 0.52851,-2.7027739 z M 4.4165957,10.998077 3.1710251,16.140584 0.22627338,16.29112 -8.38824e-7,17.492235 H 2.8310827 L 0.37765409,29.241934 c -0.0503327,0.325334 -0.0879711,0.625289 -0.11313711,0.900572 -0.0251661,0.250258 -0.0382436,0.550741 -0.0382436,0.901101 0,0.47549 0.0632618,0.938689 0.18909301,1.389153 0.12583125,0.425438 0.3396465,0.800777 0.64164141,1.126112 0.3019949,0.325335 0.6919871,0.575385 1.1701458,0.750565 0.5033249,0.200206 1.1071323,0.300543 1.8117872,0.300543 0.5788238,0 1.1199005,-0.08786 1.6232254,-0.263041 0.5033249,-0.175181 0.9314866,-0.36285 1.2838141,-0.563057 L 6.5306131,32.62027 c -0.301995,0.150154 -0.6418027,0.300394 -1.0192964,0.45055 -0.3523274,0.125129 -0.7423196,0.187509 -1.1701458,0.187509 -0.9814834,0 -1.6610989,-0.212622 -2.0385925,-0.638059 C 1.9502509,32.194832 1.774074,31.569442 1.774074,30.743592 c 0,-0.275283 0.012546,-0.525862 0.037712,-0.751093 0.025166,-0.225233 0.063336,-0.45033 0.1136683,-0.675561 L 4.3788833,17.492235 H 9.286272 L 9.5885023,16.140584 H 4.6811134 L 5.7381221,10.998077 Z M 20.498,15.690562 c -1.182813,0 -2.239874,0.375339 -3.171026,1.126112 -0.93115,0.750772 -1.774397,1.664168 -2.529385,2.740275 H 14.64674 l 0.566217,-3.416365 H 13.929674 L 10.267856,34.15943 h 1.585513 l 2.378004,-11.937209 c 0.80532,-1.626675 1.736389,-2.87798 2.793371,-3.753882 1.082149,-0.875901 2.101572,-1.314148 3.057889,-1.314148 0.352328,0 0.629404,0.03795 0.830735,0.113033 0.226495,0.05005 0.427764,0.112432 0.603929,0.187509 l 0.603929,-1.464156 c -0.301995,-0.125127 -0.591618,-0.199983 -0.868447,-0.225011 -0.251663,-0.05005 -0.503116,-0.075 -0.754779,-0.075 z m 41.713068,0 c -1.207979,0 -2.391033,0.324907 -3.548681,0.975576 -1.13248,0.625644 -2.151373,1.489135 -3.057358,2.590269 -0.905984,1.101133 -1.635783,2.389867 -2.189442,3.866387 -0.553657,1.451494 -0.830734,3.015759 -0.830734,4.692485 0,2.102163 0.478346,3.703857 1.434664,4.804991 0.981484,1.076107 2.25236,1.614163 3.812667,1.614163 1.258313,0 2.428289,-0.300482 3.510437,-0.9011 1.107315,-0.600619 2.176922,-1.401202 3.208739,-2.402232 l -0.905629,4.204433 c -0.40266,1.926984 -1.119913,3.465769 -2.151729,4.616953 -1.00665,1.151185 -2.403519,1.727198 -4.190323,1.727198 -1.13248,0 -2.139357,-0.225627 -3.020176,-0.67609 -0.880818,-0.425438 -1.660803,-0.951017 -2.340291,-1.576662 l -0.868447,1.126111 c 0.80532,0.650671 1.698751,1.226683 2.680234,1.727199 1.00665,0.500514 2.16461,0.750565 3.473256,0.750565 2.113964,0 3.825018,-0.638394 5.133663,-1.914708 1.33381,-1.251288 2.227241,-2.990217 2.680234,-5.21751 L 69.0062,16.140584 h -1.283814 l -0.717066,2.477762 h -0.15085 c -0.478159,-0.875901 -1.10759,-1.576674 -1.887743,-2.102215 -0.780153,-0.550567 -1.698676,-0.825569 -2.755659,-0.825569 z m 28.34961,0 c -1.233146,0 -2.428215,0.299954 -3.585862,0.900573 -1.13248,0.600617 -2.151904,1.42668 -3.057889,2.477762 -0.880818,1.051082 -1.585526,2.302388 -2.114017,3.753882 -0.528492,1.426468 -0.792491,2.978258 -0.792491,4.654983 0,2.277345 0.553623,4.041227 1.660938,5.292515 1.107314,1.226261 2.592006,1.839703 4.454308,1.839703 1.233147,0 2.428747,-0.300483 3.586394,-0.901101 1.157647,-0.600618 2.17654,-1.426681 3.057357,-2.477762 0.88082,-1.051082 1.585527,-2.289385 2.114017,-3.715852 0.553658,-1.451495 0.830736,-3.01576 0.830736,-4.692486 0,-2.277344 -0.553624,-4.029278 -1.660938,-5.255541 -1.107315,-1.251287 -2.605085,-1.876676 -4.492553,-1.876676 z m 49.527492,0 c -0.75498,0 -1.48479,0.124761 -2.18944,0.375018 -0.67949,0.225232 -1.28382,0.563142 -1.81232,1.013607 -0.52848,0.450463 -0.94357,0.98852 -1.24557,1.614164 -0.30199,0.625644 -0.45308,1.313941 -0.45308,2.064714 0,0.950979 0.32726,1.789517 0.98159,2.515264 0.67948,0.700722 1.82437,1.488828 3.43501,2.36473 0.70465,0.375386 1.28389,0.725773 1.73689,1.051108 0.453,0.300309 0.80535,0.600792 1.05701,0.901101 0.25167,0.300309 0.42784,0.612739 0.52851,0.938074 0.10063,0.300309 0.15085,0.625743 0.15085,0.976105 0,0.52554 -0.12599,1.013693 -0.37766,1.464157 -0.25166,0.450463 -0.59147,0.850754 -1.01929,1.201115 -0.42783,0.35036 -0.9182,0.625891 -1.47185,0.826097 -0.55366,0.200206 -1.14545,0.300014 -1.77461,0.300014 -1.15764,0 -2.17654,-0.275001 -3.05735,-0.825568 -0.88082,-0.550567 -1.57299,-1.226388 -2.0763,-2.027213 l -1.09473,0.826098 c 0.25167,0.425437 0.59148,0.838204 1.01929,1.238617 0.42784,0.375386 0.90565,0.725773 1.43414,1.051108 0.52849,0.325335 1.09466,0.575385 1.69865,0.750565 0.60399,0.200206 1.23343,0.300543 1.88774,0.300543 0.90599,0 1.73616,-0.125289 2.49115,-0.375547 0.78014,-0.250257 1.44721,-0.600645 2.00088,-1.051108 0.57882,-0.475489 1.03207,-1.038498 1.35924,-1.689168 0.32715,-0.675696 0.49079,-1.426374 0.49079,-2.252223 0,-0.400413 -0.0507,-0.788228 -0.15139,-1.163614 -0.10062,-0.400413 -0.31448,-0.801232 -0.64164,-1.201644 -0.32715,-0.400412 -0.79242,-0.825655 -1.39642,-1.276119 -0.57882,-0.450463 -1.35933,-0.938615 -2.34082,-1.464157 -0.45299,-0.250258 -0.88062,-0.487831 -1.28329,-0.713063 -0.40265,-0.250257 -0.75501,-0.512783 -1.057,-0.788067 -0.302,-0.300309 -0.55345,-0.613268 -0.75478,-0.938602 -0.17616,-0.350361 -0.26452,-0.738176 -0.26452,-1.163614 0,-0.47549 0.10094,-0.926213 0.30223,-1.351651 0.2265,-0.425438 0.52814,-0.800777 0.90563,-1.126113 0.3775,-0.325334 0.8182,-0.575384 1.32152,-0.750565 0.50333,-0.200205 1.0444,-0.300542 1.62323,-0.300542 0.90598,0 1.67342,0.18767 2.30258,0.563055 0.65432,0.350362 1.23303,0.775604 1.73636,1.27612 l 1.0193,-0.975577 c -0.62916,-0.65067 -1.3715,-1.176248 -2.22715,-1.576661 -0.83049,-0.400412 -1.76155,-0.600558 -2.79338,-0.600558 z m -115.399847,0.450022 -0.30223,1.351651 h 9.248559 l -13.514306,15.728592 -0.15085,0.938603 h 12.608148 l 0.30223,-1.351652 H 22.234363 l 13.55202,-15.728591 0.150849,-0.938603 z m 12.64586,0 3.057889,18.31886 -0.793022,1.53916 c -0.754987,1.526572 -1.598233,2.740451 -2.529385,3.641378 -0.93115,0.925953 -1.937496,1.389153 -3.019645,1.389153 -0.452992,0 -0.880623,-0.112814 -1.283283,-0.338045 l -0.60446,1.238617 c 0.352328,0.175181 0.692136,0.287995 1.019296,0.338045 0.301996,0.07507 0.55398,0.112505 0.75531,0.112505 0.830486,0 1.585379,-0.175193 2.264866,-0.525554 0.679489,-0.325335 1.295843,-0.77553 1.849501,-1.351123 0.578823,-0.550566 1.094808,-1.188959 1.5478,-1.914706 0.478158,-0.725748 0.918867,-1.46395 1.321527,-2.214722 L 52.094061,16.140584 h -1.585513 l -6.115246,11.299148 c -0.503326,0.900928 -0.994218,1.801847 -1.472377,2.702774 -0.452993,0.900927 -0.905715,1.789371 -1.358707,2.665272 H 41.410837 C 41.310172,31.981928 41.184712,31.10649 41.033713,30.180536 40.907882,29.229558 40.781889,28.315634 40.656059,27.439732 L 38.881984,16.140584 Z m 63.645727,0 1.54727,18.018846 h 2.11403 l 5.1719,-11.224145 c 0.40266,-0.875902 0.79265,-1.776822 1.17014,-2.702774 0.40266,-0.925953 0.79265,-1.814396 1.17015,-2.665273 h 0.15085 c 0.0756,0.850877 0.12624,1.73932 0.15138,2.665273 0.0252,0.925952 0.0628,1.826872 0.11313,2.702774 l 0.75479,11.224145 h 2.11402 l 8.53149,-18.018846 h -1.51009 l -5.51132,11.7872 c -0.42782,0.82585 -0.81782,1.651913 -1.17014,2.477763 l -1.05701,2.402231 h -0.15085 c -0.0503,-0.800824 -0.10104,-1.601407 -0.15138,-2.402231 -0.0252,-0.82585 -0.0628,-1.651913 -0.11314,-2.477763 l -0.83021,-11.7872 h -1.88774 l -5.43589,11.7872 c -0.3775,0.82585 -0.7424,1.651913 -1.09472,2.477763 -0.35233,0.800824 -0.71723,1.601407 -1.09473,2.402231 h -0.15085 c -0.0504,-0.800824 -0.11358,-1.601407 -0.18908,-2.402231 -0.0504,-0.82585 -0.11307,-1.651913 -0.18857,-2.477763 l -0.90616,-11.7872 z m 76.44244,0 -2.34082,11.637193 c -0.12586,0.500515 -0.21368,0.925759 -0.26398,1.276119 -0.0252,0.325335 -0.0377,0.713679 -0.0377,1.164143 0,1.301339 0.32726,2.364975 0.98159,3.190826 0.67949,0.800823 1.79928,1.201115 3.35959,1.201115 1.10731,0 2.17692,-0.325436 3.20874,-0.976105 1.03181,-0.650669 2.10142,-1.451779 3.20873,-2.402758 h 0.15085 l -0.37766,2.928313 h 1.28382 l 3.62358,-18.018846 h -1.5478 l -2.68023,13.288859 c -1.35899,1.326366 -2.56661,2.290193 -3.62358,2.890812 -1.05698,0.600618 -1.98804,0.900572 -2.79337,0.900572 -1.13248,0 -1.95064,-0.275002 -2.45396,-0.825569 -0.50332,-0.550567 -0.75478,-1.389106 -0.75478,-2.515265 0,-0.350361 0.0125,-0.688272 0.0377,-1.013606 0.0504,-0.325335 0.13816,-0.763054 0.26399,-1.313621 l 2.30257,-11.412182 z M 62.173356,17.041685 c 0.855651,0 1.648182,0.250578 2.378004,0.751093 0.72982,0.500515 1.434528,1.338525 2.114018,2.514737 l -1.887213,8.896917 c -1.031817,1.126159 -2.152139,2.014603 -3.360119,2.665272 -1.182813,0.65067 -2.277513,0.975576 -3.284163,0.975576 -1.233146,0 -2.201854,-0.43772 -2.906508,-1.313621 -0.704656,-0.875902 -1.057009,-2.202064 -1.057009,-3.978893 0,-1.30134 0.226361,-2.577599 0.679354,-3.828886 0.452992,-1.251288 1.044784,-2.365357 1.774606,-3.341362 0.754987,-1.00103 1.610249,-1.801613 2.566566,-2.402231 0.956317,-0.625644 1.950648,-0.938602 2.982464,-0.938602 z m 28.274185,0 c 1.509975,0 2.667937,0.513103 3.473256,1.53916 0.80532,1.001029 1.207858,2.477434 1.207858,4.429444 0,1.401443 -0.226361,2.728133 -0.679353,3.979421 -0.452993,1.226262 -1.057332,2.302375 -1.812319,3.228329 -0.729821,0.925952 -1.55999,1.664154 -2.491141,2.214721 -0.931151,0.550566 -1.887844,0.825569 -2.869327,0.825569 -1.509975,0 -2.679951,-0.513104 -3.510437,-1.53916 -0.805321,-1.026056 -1.207858,-2.514937 -1.207858,-4.466946 0,-1.376417 0.226361,-2.677628 0.679353,-3.903889 0.452992,-1.251289 1.044254,-2.339877 1.774075,-3.265831 0.754988,-0.925952 1.598234,-1.664155 2.529385,-2.214722 0.956316,-0.550566 1.925024,-0.826096 2.906508,-0.826096 z m 113.927479,0 c 1.2583,0 2.25264,0.450723 2.98246,1.351651 0.72982,0.900927 1.09472,2.252043 1.09472,4.053897 0,1.351391 -0.22635,2.678082 -0.67935,3.979421 -0.453,1.30134 -1.06988,2.464786 -1.85003,3.490842 -0.75499,1.00103 -1.63588,1.814617 -2.64252,2.44026 -0.98148,0.60062 -2.01293,0.900573 -3.09507,0.900573 -0.85566,0 -1.64872,-0.250051 -2.37854,-0.750565 -0.72982,-0.500516 -1.42198,-1.339055 -2.0763,-2.515265 l 1.96317,-9.609981 c 1.03181,-0.976005 2.1516,-1.776587 3.35958,-2.402231 1.20798,-0.625644 2.31522,-0.938602 3.32188,-0.938602 z" />
  </g>
</svg>
